<svg xmlns="http://www.w3.org/2000/svg" viewBox="0 0 700 840" width="700" height="840" role="img" xmlns:c2pa="http://c2pa.org/manifest"><metadata><c2pa:manifest>AAAWgmp1bWIAAAAeanVtZGMycGEAEQAQgAAAqgA4m3EDYzJwYQAAABZcanVtYgAAAEdqdW1kYzJtYQARABCAAACqADibcQN1cm46YzJwYTo2MmYxNzBjMy0zMzNlLTQzNWYtOWY3My05OTEzNzJhY2QxODAAAAADl2p1bWIAAAApanVtZGMyYXMAEQAQgAAAqgA4m3EDYzJwYS5hc3NlcnRpb25zAAAAALxqdW1iAAAARGp1bWRjYm9yABEAEIAAAKoAOJtxE2MycGEuaW5ncmVkaWVudC52MwAAAAAYYzJzaAhgXxDTG8fX3NzKCHMjyJwAAABwY2JvcqNpZGM6Zm9ybWF0bWltYWdlL3N2Zyt4bWxqaW5zdGFuY2VJRHgseG1wOmlpZDpjNzA2ZjY3Ni04Njk0LTRjNDMtYjhmOS1kMWFkNTE3ODZhYWRscmVsYXRpb25zaGlwaHBhcmVudE9mAAAB4mp1bWIAAABBanVtZGNib3IAEQAQgAAAqgA4m3ETYzJwYS5hY3Rpb25zLnYyAAAAABhjMnNoOiOxfVZagnbwE2W70Ts65wAAAZljYm9yomdhY3Rpb25zgqJmYWN0aW9ua2MycGEub3BlbmVkanBhcmFtZXRlcnOha2luZ3JlZGllbnRzgaJjdXJseC1zZWxmI2p1bWJmPWMycGEuYXNzZXJ0aW9ucy9jMnBhLmluZ3JlZGllbnQudjNkaGFzaFggv4k1O/1R5/fBeDRNR2Kjq5yOnC+L43h9RE2li/LYCdSkZmFjdGlvbngdY29tLmFudGhyb3BpYy5jbGF1ZGUucHJvdmlkZWRqcGFyYW1ldGVyc6F4H2NvbS5hbnRocm9waWMub3JpZ2luLWNvbmZpZGVuY2VndW5rbm93bmtkZXNjcmlwdGlvbnhmQ2xhdWRlIHByb3ZpZGVkIHRoaXMgZmlsZSBhdCB0aGUgcmVxdWVzdCBvZiBhIHVzZXIgYW5kIG1heSBoYXZlIGNyZWF0ZWQgb3IgbW9kaWZpZWQgdGhlIGZpbGUgY29udGVudHMubXNvZnR3YXJlQWdlbnShZG5hbWVmQ2xhdWRlcmFsbEFjdGlvbnNJbmNsdWRlZPUAAADIanVtYgAAAEBqdW1kY2JvcgARABCAAACqADibcRNjMnBhLmhhc2guZGF0YQAAAAAYYzJzaNZSrzksHNeXaikH2KtG/2EAAACAY2JvcqVjYWxnZnNoYTI1NmNwYWRNAAAAAAAAAAAAAAAAAGRoYXNoWCDMJ+LJPipmr5Jxw+mF6kOUKUZvn28MlwRmCVXjZGgrAWRuYW1lbmp1bWJmIG1hbmlmZXN0amV4Y2x1c2lvbnOBomVzdGFydBihZmxlbmd0aBkeBAAAAj5qdW1iAAAAJ2p1bWRjMmNsABEAEIAAAKoAOJtxA2MycGEuY2xhaW0udjIAAAACD2Nib3KlY2FsZ2ZzaGEyNTZpc2lnbmF0dXJleE1zZWxmI2p1bWJmPS9jMnBhL3VybjpjMnBhOjYyZjE3MGMzLTMzM2UtNDM1Zi05ZjczLTk5MTM3MmFjZDE4MC9jMnBhLnNpZ25hdHVyZWppbnN0YW5jZUlEeCx4bXA6aWlkOjJlMWVjMDg2LWQyZjMtNGNlMy1hMDBhLTE4ZTAyNDVmYWJmNXJjcmVhdGVkX2Fzc2VydGlvbnODomN1cmx4LXNlbGYjanVtYmY9YzJwYS5hc3NlcnRpb25zL2MycGEuaW5ncmVkaWVudC52M2RoYXNoWCC/iTU7/VHn98F4NE1HYqOrnI6cL4vjeH1ETaWL8tgJ1KJjdXJseCpzZWxmI2p1bWJmPWMycGEuYXNzZXJ0aW9ucy9jMnBhLmFjdGlvbnMudjJkaGFzaFgg561dnQSklMBEgQAvMLHEhywW9Hr/583nbzZHrGXrP7SiY3VybHgpc2VsZiNqdW1iZj1jMnBhLmFzc2VydGlvbnMvYzJwYS5oYXNoLmRhdGFkaGFzaFgg1YeQeIU+GXmwGrUX0TPxYtTLvNZVZi2mi0G4M6TAKER0Y2xhaW1fZ2VuZXJhdG9yX2luZm+jZG5hbWVvQW50aHJvcGljIEZpbGVzZ3ZlcnNpb25lMS4wLjBrc3BlY1ZlcnNpb25lMi40LjAAABA4anVtYgAAAChqdW1kYzJjcwARABCAAACqADibcQNjMnBhLnNpZ25hdHVyZQAAABAIY2JvctKEWQISogEmGCFZAgowggIGMIIBjaADAgECAhRA5aAK7sI50L64g/oGQgU9Z1UTADAKBggqhkjOPQQDAzBJMRcwFQYDVQQKEw5BbnRocm9waWMsIFBCQzEuMCwGA1UEAxMlQW50aHJvcGljIENvbnRlbnQgQ3JlZGVudGlhbHMgUm9vdCBDQTAeFw0yNjA4MDcxODQzNTZaFw0yODA4MDYxOTQzNTZaMEQxFzAVBgNVBAoTDkFudGhyb3BpYywgUEJDMSkwJwYDVQQDEyBBbnRocm9waWMgQ2xhdWRlIENvbnRlbnQgU2lnbmluZzBZMBMGByqGSM49AgEGCCqGSM49AwEHA0IABJh6CmvLUBgFFNU0vUKlOVtE6djd17L5SuwX0LemFisBM3dkd/3cyjxFA3Qo5S46fX0/ihY0VZ7mfb9KF703t5OjWDBWMA4GA1UdDwEB/wQEAwIHgDAVBgNVHSUEDjAMBgorBgEEAYPoXgIBMAwGA1UdEwEB/wQCMAAwHwYDVR0jBBgwFoAUzlHiBIFOZFsj+OPEz5o+nMHXXMIwCgYIKoZIzj0EAwMDZwAwZAIwMXMdFJ4BetLLVY7ORuE9noqbbAZOZn/aArXyTwFAZfKrPzxF2vPoJNf1+UCdg1XGAjBwX1zd9WGqYkqmL5SFqw1QySjr1zJfpJM9+1rdDwSPLMOPOjKuiXjoU/pUUeG9RwmhY3BhZFkNngAAAAAAAAAAAAAAAAAAAAAAAAAAAAAAAAAAAAAAAAAAAAAAAAAAAAAAAAAAAAAAAAAAAAAAAAAAAAAAAAAAAAAAAAAAAAAAAAAAAAAAAAAAAAAAAAAAAAAAAAAAAAAAAAAAAAAAAAAAAAAAAAAAAAAAAAAAAAAAAAAAAAAAAAAAAAAAAAAAAAAAAAAAAAAAAAAAAAAAAAAAAAAAAAAAAAAAAAAAAAAAAAAAAAAAAAAAAAAAAAAAAAAAAAAAAAAAAAAAAAAAAAAAAAAAAAAAAAAAAAAAAAAAAAAAAAAAAAAAAAAAAAAAAAAAAAAAAAAAAAAAAAAAAAAAAAAAAAAAAAAAAAAAAAAAAAAAAAAAAAAAAAAAAAAAAAAAAAAAAAAAAAAAAAAAAAAAAAAAAAAAAAAAAAAAAAAAAAAAAAAAAAAAAAAAAAAAAAAAAAAAAAAAAAAAAAAAAAAAAAAAAAAAAAAAAAAAAAAAAAAAAAAAAAAAAAAAAAAAAAAAAAAAAAAAAAAAAAAAAAAAAAAAAAAAAAAAAAAAAAAAAAAAAAAAAAAAAAAAAAAAAAAAAAAAAAAAAAAAAAAAAAAAAAAAAAAAAAAAAAAAAAAAAAAAAAAAAAAAAAAAAAAAAAAAAAAAAAAAAAAAAAAAAAAAAAAAAAAAAAAAAAAAAAAAAAAAAAAAAAAAAAAAAAAAAAAAAAAAAAAAAAAAAAAAAAAAAAAAAAAAAAAAAAAAAAAAAAAAAAAAAAAAAAAAAAAAAAAAAAAAAAAAAAAAAAAAAAAAAAAAAAAAAAAAAAAAAAAAAAAAAAAAAAAAAAAAAAAAAAAAAAAAAAAAAAAAAAAAAAAAAAAAAAAAAAAAAAAAAAAAAAAAAAAAAAAAAAAAAAAAAAAAAAAAAAAAAAAAAAAAAAAAAAAAAAAAAAAAAAAAAAAAAAAAAAAAAAAAAAAAAAAAAAAAAAAAAAAAAAAAAAAAAAAAAAAAAAAAAAAAAAAAAAAAAAAAAAAAAAAAAAAAAAAAAAAAAAAAAAAAAAAAAAAAAAAAAAAAAAAAAAAAAAAAAAAAAAAAAAAAAAAAAAAAAAAAAAAAAAAAAAAAAAAAAAAAAAAAAAAAAAAAAAAAAAAAAAAAAAAAAAAAAAAAAAAAAAAAAAAAAAAAAAAAAAAAAAAAAAAAAAAAAAAAAAAAAAAAAAAAAAAAAAAAAAAAAAAAAAAAAAAAAAAAAAAAAAAAAAAAAAAAAAAAAAAAAAAAAAAAAAAAAAAAAAAAAAAAAAAAAAAAAAAAAAAAAAAAAAAAAAAAAAAAAAAAAAAAAAAAAAAAAAAAAAAAAAAAAAAAAAAAAAAAAAAAAAAAAAAAAAAAAAAAAAAAAAAAAAAAAAAAAAAAAAAAAAAAAAAAAAAAAAAAAAAAAAAAAAAAAAAAAAAAAAAAAAAAAAAAAAAAAAAAAAAAAAAAAAAAAAAAAAAAAAAAAAAAAAAAAAAAAAAAAAAAAAAAAAAAAAAAAAAAAAAAAAAAAAAAAAAAAAAAAAAAAAAAAAAAAAAAAAAAAAAAAAAAAAAAAAAAAAAAAAAAAAAAAAAAAAAAAAAAAAAAAAAAAAAAAAAAAAAAAAAAAAAAAAAAAAAAAAAAAAAAAAAAAAAAAAAAAAAAAAAAAAAAAAAAAAAAAAAAAAAAAAAAAAAAAAAAAAAAAAAAAAAAAAAAAAAAAAAAAAAAAAAAAAAAAAAAAAAAAAAAAAAAAAAAAAAAAAAAAAAAAAAAAAAAAAAAAAAAAAAAAAAAAAAAAAAAAAAAAAAAAAAAAAAAAAAAAAAAAAAAAAAAAAAAAAAAAAAAAAAAAAAAAAAAAAAAAAAAAAAAAAAAAAAAAAAAAAAAAAAAAAAAAAAAAAAAAAAAAAAAAAAAAAAAAAAAAAAAAAAAAAAAAAAAAAAAAAAAAAAAAAAAAAAAAAAAAAAAAAAAAAAAAAAAAAAAAAAAAAAAAAAAAAAAAAAAAAAAAAAAAAAAAAAAAAAAAAAAAAAAAAAAAAAAAAAAAAAAAAAAAAAAAAAAAAAAAAAAAAAAAAAAAAAAAAAAAAAAAAAAAAAAAAAAAAAAAAAAAAAAAAAAAAAAAAAAAAAAAAAAAAAAAAAAAAAAAAAAAAAAAAAAAAAAAAAAAAAAAAAAAAAAAAAAAAAAAAAAAAAAAAAAAAAAAAAAAAAAAAAAAAAAAAAAAAAAAAAAAAAAAAAAAAAAAAAAAAAAAAAAAAAAAAAAAAAAAAAAAAAAAAAAAAAAAAAAAAAAAAAAAAAAAAAAAAAAAAAAAAAAAAAAAAAAAAAAAAAAAAAAAAAAAAAAAAAAAAAAAAAAAAAAAAAAAAAAAAAAAAAAAAAAAAAAAAAAAAAAAAAAAAAAAAAAAAAAAAAAAAAAAAAAAAAAAAAAAAAAAAAAAAAAAAAAAAAAAAAAAAAAAAAAAAAAAAAAAAAAAAAAAAAAAAAAAAAAAAAAAAAAAAAAAAAAAAAAAAAAAAAAAAAAAAAAAAAAAAAAAAAAAAAAAAAAAAAAAAAAAAAAAAAAAAAAAAAAAAAAAAAAAAAAAAAAAAAAAAAAAAAAAAAAAAAAAAAAAAAAAAAAAAAAAAAAAAAAAAAAAAAAAAAAAAAAAAAAAAAAAAAAAAAAAAAAAAAAAAAAAAAAAAAAAAAAAAAAAAAAAAAAAAAAAAAAAAAAAAAAAAAAAAAAAAAAAAAAAAAAAAAAAAAAAAAAAAAAAAAAAAAAAAAAAAAAAAAAAAAAAAAAAAAAAAAAAAAAAAAAAAAAAAAAAAAAAAAAAAAAAAAAAAAAAAAAAAAAAAAAAAAAAAAAAAAAAAAAAAAAAAAAAAAAAAAAAAAAAAAAAAAAAAAAAAAAAAAAAAAAAAAAAAAAAAAAAAAAAAAAAAAAAAAAAAAAAAAAAAAAAAAAAAAAAAAAAAAAAAAAAAAAAAAAAAAAAAAAAAAAAAAAAAAAAAAAAAAAAAAAAAAAAAAAAAAAAAAAAAAAAAAAAAAAAAAAAAAAAAAAAAAAAAAAAAAAAAAAAAAAAAAAAAAAAAAAAAAAAAAAAAAAAAAAAAAAAAAAAAAAAAAAAAAAAAAAAAAAAAAAAAAAAAAAAAAAAAAAAAAAAAAAAAAAAAAAAAAAAAAAAAAAAAAAAAAAAAAAAAAAAAAAAAAAAAAAAAAAAAAAAAAAAAAAAAAAAAAAAAAAAAAAAAAAAAAAAAAAAAAAAAAAAAAAAAAAAAAAAAAAAAAAAAAAAAAAAAAAAAAAAAAAAAAAAAAAAAAAAAAAAAAAAAAAAAAAAAAAAAAAAAAAAAAAAAAAAAAAAAAAAAAAAAAAAAAAAAAAAAAAAAAAAAAAAAAAAAAAAAAAAAAAAAAAAAAAAAAAAAAAAAAAAAAAAAAAAAAAAAAAAAAAAAAAAAAAAAAAAAAAAAAAAAAAAAAAAAAAAAAAAAAAAAAAAAAAAAAAAAAAAAAAAAAAAAAAAAAAAAAAAAAAAAAAAAAAAAAAAAAAAAAAAAAAAAAAAAAAAAAAAAAAAAAAAAAAAAAAAAAAAAAAAAAAAAAAAAAAAAAAAAAAAAAAAAAAAAAAAAAAAAAAAAAAAAAAAAAAAAAAAAAAAAAAAAAAAAAAAAAAAAAAAAAAAAAAAAAAAAAAAAAAAAAAAAAAAAAAAAAAAAAAAAAAAAAAAAAAAAAAAAAAAAAAAAAAAAAAAAAAAAAAAAAAAAAAAAAAAAAAAAAAAAAAAAAAAAAAAAAAAAAAAAAAAAAAAAAAAAAAAAAAAAAAAAAAAAAAAAAAAAAAAAAAAAAAAAAAAAAAAAAAAAAAAAAAAAAAAAAAAAAAAAAAAAAAAAAAAAAAAAAAAAAAAAAAAAAAAAAAAAAAAAAAAAAAAAAAAAAAAAAAAAAAAAAAAAAAAAAAAAAAAAAAAAAAAAAAAAAAAAAAAAAAAAAAAAAAAAAAAAAAAAAAAAAAAAAAAAAAAAAAAAAAAAAAAAAAAAAAAAAAAAAAAAAAAAAAAAAAAAAAAAAAAAAAAAAAAAAAAAAAAAAAAAAAAAAAAAAAAAAAAAAAAAAAAAAAAAAAAAAAAAAAAAAAAAAAAAAAAAAAAAAAAAAAAAAAAAAAAAAAAAAAAAAAAAAAAAAAAAAAAAAAAAAAAAAAAAAAAAAAAAAAAAAAAAAAAAAAAAAAAAAAAAAAAAAAAAAAAAAAAAAAAAAAAAAAAAAAAAAAAAAAAAAAAAAAAAAAAAAAAAAAAAAAAAAAAAAAAAAAAAAAAAAAAAAAAAAAAAAAAAAAAAAAAAAAAAAAAAAAAAAAAAAAAAAAAAAAAAAAAAAAAAAAAAAAAAAAAAAAAAAAAAAAAAAAAAAAAAAAAAAAAAAAAAAAAAAAAAAAAAAAAAAAAAAAAAAAAAAAAAAAAAAAAAAAAAAAAAAAAAAAAAAAAAAAAAAAAAAAAAAAAAAAAAAAAAAAAAAAAAAAAAAAAAAAAAAAAAAAAAAAAAAAAAAAAAAAAAAAAAAAAAAAAAAAAAAAAAAAAAAAAAAAAAAAAAAAAAAAAAAAAAAAAAAAAAAAAAAAAAAAAAAAAAAAAAAAAAAAAAAAAAAAAAAAAAAAAAAAAAAAAAAAAAAAAAAAAAAAAAAAAAAAAAAAAAAAAAAAAAAAAAAAAAAAAAAAAAAAAAAAAAAAAAAAAAAAAAAAAAAAAAAAAAAAAPZYQONGxN+JWtKpZCY1RbtjtjWxM5yRwumBkxZOkwGZBkjbuoVdy/aiI4DH5NmdusnQyoNu4FAb5+H5OS6p5W0gfJU=</c2pa:manifest></metadata><defs><linearGradient id="g" x1="0" y1="0" x2="1" y2="1"><stop offset="0" stop-color="#00468B"/><stop offset="1" stop-color="#06203A"/></linearGradient></defs><rect width="700" height="840" fill="url(#g)"/><path d="M0,157.0 Q0.0,157.0 20.0,154.3 Q40.0,151.6 60.0,148.9 Q80.0,146.2 100.0,143.9 Q120.0,141.6 140.0,140.0 Q160.0,138.4 180.0,137.8 Q200.0,137.2 220.0,137.7 Q240.0,138.2 260.0,139.7 Q280.0,141.1 300.0,143.4 Q320.0,145.7 340.0,148.3 Q360.0,151.0 380.0,153.7 Q400.0,156.4 420.0,158.7 Q440.0,161.0 460.0,162.6 Q480.0,164.1 500.0,164.7 Q520.0,165.2 540.0,164.7 Q560.0,164.1 580.0,162.6 Q600.0,161.1 620.0,158.8 Q640.0,156.5 660.0,153.8 Q680.0,151.1 700.0,148.4" fill="none" stroke="#ffffff" stroke-opacity=".22" stroke-width="1.2"/><path d="M0,215.7 Q0.0,215.7 20.0,213.4 Q40.0,211.1 60.0,209.7 Q80.0,208.3 100.0,208.0 Q120.0,207.7 140.0,208.5 Q160.0,209.3 180.0,211.2 Q200.0,213.0 220.0,215.6 Q240.0,218.2 260.0,221.1 Q280.0,224.1 300.0,226.9 Q320.0,229.7 340.0,232.0 Q360.0,234.2 380.0,235.6 Q400.0,237.0 420.0,237.2 Q440.0,237.5 460.0,236.6 Q480.0,235.7 500.0,233.9 Q520.0,232.0 540.0,229.3 Q560.0,226.7 580.0,223.8 Q600.0,220.9 620.0,218.1 Q640.0,215.3 660.0,213.0 Q680.0,210.8 700.0,209.5" fill="none" stroke="#ffffff" stroke-opacity=".22" stroke-width="1.2"/><path d="M0,278.3 Q0.0,278.3 20.0,278.3 Q40.0,278.3 60.0,279.5 Q80.0,280.7 100.0,283.0 Q120.0,285.2 140.0,288.1 Q160.0,291.0 180.0,294.2 Q200.0,297.3 220.0,300.2 Q240.0,303.1 260.0,305.3 Q280.0,307.4 300.0,308.6 Q320.0,309.7 340.0,309.7 Q360.0,309.6 380.0,308.4 Q400.0,307.1 420.0,304.8 Q440.0,302.5 460.0,299.6 Q480.0,296.7 500.0,293.5 Q520.0,290.4 540.0,287.5 Q560.0,284.7 580.0,282.5 Q600.0,280.4 620.0,279.3 Q640.0,278.2 660.0,278.3 Q680.0,278.4 700.0,279.8" fill="none" stroke="#ffffff" stroke-opacity=".22" stroke-width="1.2"/><path d="M0,352.4 Q0.0,352.4 20.0,355.1 Q40.0,357.7 60.0,360.9 Q80.0,364.1 100.0,367.4 Q120.0,370.7 140.0,373.6 Q160.0,376.5 180.0,378.6 Q200.0,380.6 220.0,381.5 Q240.0,382.4 260.0,381.9 Q280.0,381.5 300.0,379.8 Q320.0,378.2 340.0,375.5 Q360.0,372.8 380.0,369.6 Q400.0,366.4 420.0,363.1 Q440.0,359.8 460.0,356.9 Q480.0,354.0 500.0,352.0 Q520.0,350.1 540.0,349.2 Q560.0,348.4 580.0,348.9 Q600.0,349.4 620.0,351.1 Q640.0,352.8 660.0,355.5 Q680.0,358.2 700.0,361.5" fill="none" stroke="#ffffff" stroke-opacity=".22" stroke-width="1.2"/><path d="M0,437.4 Q0.0,437.4 20.0,440.8 Q40.0,444.3 60.0,447.1 Q80.0,450.0 100.0,451.8 Q120.0,453.7 140.0,454.2 Q160.0,454.8 180.0,453.9 Q200.0,453.1 220.0,451.0 Q240.0,448.9 260.0,445.9 Q280.0,442.9 300.0,439.4 Q320.0,435.9 340.0,432.4 Q360.0,429.0 380.0,426.2 Q400.0,423.4 420.0,421.6 Q440.0,419.8 460.0,419.3 Q480.0,418.8 500.0,419.7 Q520.0,420.6 540.0,422.8 Q560.0,424.9 580.0,428.0 Q600.0,431.0 620.0,434.5 Q640.0,438.1 660.0,441.5 Q680.0,444.9 700.0,447.6" fill="none" stroke="#ffffff" stroke-opacity=".22" stroke-width="1.2"/><path d="M0,523.5 Q0.0,523.5 20.0,525.1 Q40.0,526.6 60.0,526.8 Q80.0,527.0 100.0,525.7 Q120.0,524.4 140.0,521.9 Q160.0,519.4 180.0,516.0 Q200.0,512.6 220.0,508.9 Q240.0,505.1 260.0,501.7 Q280.0,498.2 300.0,495.4 Q320.0,492.7 340.0,491.2 Q360.0,489.7 380.0,489.6 Q400.0,489.5 420.0,490.8 Q440.0,492.2 460.0,494.7 Q480.0,497.3 500.0,500.7 Q520.0,504.1 540.0,507.9 Q560.0,511.6 580.0,515.1 Q600.0,518.5 620.0,521.2 Q640.0,523.9 660.0,525.3 Q680.0,526.8 700.0,526.8" fill="none" stroke="#ffffff" stroke-opacity=".22" stroke-width="1.2"/><path d="M0,598.9 Q0.0,598.9 20.0,597.2 Q40.0,595.4 60.0,592.5 Q80.0,589.5 100.0,585.8 Q120.0,582.1 140.0,578.1 Q160.0,574.2 180.0,570.7 Q200.0,567.2 220.0,564.7 Q240.0,562.1 260.0,560.9 Q280.0,559.7 300.0,560.1 Q320.0,560.4 340.0,562.2 Q360.0,564.0 380.0,567.0 Q400.0,570.0 420.0,573.8 Q440.0,577.5 460.0,581.4 Q480.0,585.3 500.0,588.8 Q520.0,592.2 540.0,594.7 Q560.0,597.2 580.0,598.4 Q600.0,599.5 620.0,599.1 Q640.0,598.7 660.0,596.8 Q680.0,595.0 700.0,591.9" fill="none" stroke="#ffffff" stroke-opacity=".22" stroke-width="1.2"/><path d="M0,659.3 Q0.0,659.3 20.0,655.3 Q40.0,651.3 60.0,647.2 Q80.0,643.2 100.0,639.7 Q120.0,636.3 140.0,634.0 Q160.0,631.6 180.0,630.8 Q200.0,630.0 220.0,630.8 Q240.0,631.6 260.0,633.9 Q280.0,636.2 300.0,639.6 Q320.0,643.0 340.0,647.1 Q360.0,651.1 380.0,655.1 Q400.0,659.2 420.0,662.6 Q440.0,666.0 460.0,668.2 Q480.0,670.5 500.0,671.2 Q520.0,672.0 540.0,671.1 Q560.0,670.3 580.0,667.9 Q600.0,665.6 620.0,662.1 Q640.0,658.6 660.0,654.6 Q680.0,650.5 700.0,646.5" fill="none" stroke="#ffffff" stroke-opacity=".22" stroke-width="1.2"/><path d="M0,712.0 Q0.0,712.0 20.0,708.7 Q40.0,705.3 60.0,703.3 Q80.0,701.3 100.0,700.9 Q120.0,700.5 140.0,701.8 Q160.0,703.1 180.0,705.9 Q200.0,708.7 220.0,712.5 Q240.0,716.3 260.0,720.6 Q280.0,724.9 300.0,729.0 Q320.0,733.1 340.0,736.4 Q360.0,739.7 380.0,741.6 Q400.0,743.6 420.0,743.9 Q440.0,744.2 460.0,742.9 Q480.0,741.5 500.0,738.7 Q520.0,735.8 540.0,732.0 Q560.0,728.1 580.0,723.8 Q600.0,719.5 620.0,715.4 Q640.0,711.3 660.0,708.1 Q680.0,704.9 700.0,703.0" fill="none" stroke="#ffffff" stroke-opacity=".22" stroke-width="1.2"/><text x="350" y="413" text-anchor="middle" font-family="Jost, Futura, Avenir, Helvetica, Arial, sans-serif" font-size="20" font-weight="500" letter-spacing="1.2" fill="#ffffff" fill-opacity=".92">[CEO Photo]</text><text x="350" y="443" text-anchor="middle" font-family="Jost, Futura, Avenir, Helvetica, Arial, sans-serif" font-size="12" font-weight="400" letter-spacing="1.4" fill="#ffffff" fill-opacity=".62">Portrait, 5:6 ratio</text></svg>