<svg xmlns="http://www.w3.org/2000/svg" viewBox="0 0 900 680" width="900" height="680" role="img" xmlns:c2pa="http://c2pa.org/manifest"><metadata><c2pa:manifest>AAAWgmp1bWIAAAAeanVtZGMycGEAEQAQgAAAqgA4m3EDYzJwYQAAABZcanVtYgAAAEdqdW1kYzJtYQARABCAAACqADibcQN1cm46YzJwYTpmZDk1OTY0Yi0xMzdjLTQxOGEtOTIwNS00MmRkNDYyMzcxZmMAAAADl2p1bWIAAAApanVtZGMyYXMAEQAQgAAAqgA4m3EDYzJwYS5hc3NlcnRpb25zAAAAALxqdW1iAAAARGp1bWRjYm9yABEAEIAAAKoAOJtxE2MycGEuaW5ncmVkaWVudC52MwAAAAAYYzJzaLpbjNEJyYwgyYdg9Hlwjj8AAABwY2JvcqNpZGM6Zm9ybWF0bWltYWdlL3N2Zyt4bWxqaW5zdGFuY2VJRHgseG1wOmlpZDplZjcwMzAyMS02ZTBhLTRiZjMtOTlkNS1jMmUyNjk3NmQ3NjBscmVsYXRpb25zaGlwaHBhcmVudE9mAAAB4mp1bWIAAABBanVtZGNib3IAEQAQgAAAqgA4m3ETYzJwYS5hY3Rpb25zLnYyAAAAABhjMnNoiWTDMwvxdPzYozn687048AAAAZljYm9yomdhY3Rpb25zgqJmYWN0aW9ua2MycGEub3BlbmVkanBhcmFtZXRlcnOha2luZ3JlZGllbnRzgaJjdXJseC1zZWxmI2p1bWJmPWMycGEuYXNzZXJ0aW9ucy9jMnBhLmluZ3JlZGllbnQudjNkaGFzaFgg6jqBcr2gDM4NztjbTs4FE6XwJlJmOzhVPemn7WnyOuWkZmFjdGlvbngdY29tLmFudGhyb3BpYy5jbGF1ZGUucHJvdmlkZWRqcGFyYW1ldGVyc6F4H2NvbS5hbnRocm9waWMub3JpZ2luLWNvbmZpZGVuY2VndW5rbm93bmtkZXNjcmlwdGlvbnhmQ2xhdWRlIHByb3ZpZGVkIHRoaXMgZmlsZSBhdCB0aGUgcmVxdWVzdCBvZiBhIHVzZXIgYW5kIG1heSBoYXZlIGNyZWF0ZWQgb3IgbW9kaWZpZWQgdGhlIGZpbGUgY29udGVudHMubXNvZnR3YXJlQWdlbnShZG5hbWVmQ2xhdWRlcmFsbEFjdGlvbnNJbmNsdWRlZPUAAADIanVtYgAAAEBqdW1kY2JvcgARABCAAACqADibcRNjMnBhLmhhc2guZGF0YQAAAAAYYzJzaAKDC7sqO07dE/nhhqAG0YkAAACAY2JvcqVjYWxnZnNoYTI1NmNwYWRNAAAAAAAAAAAAAAAAAGRoYXNoWCDpuRZtERoRMMJe14rckvmpsMXc49EUp7mNMEQn+bUMEWRuYW1lbmp1bWJmIG1hbmlmZXN0amV4Y2x1c2lvbnOBomVzdGFydBihZmxlbmd0aBkeBAAAAj5qdW1iAAAAJ2p1bWRjMmNsABEAEIAAAKoAOJtxA2MycGEuY2xhaW0udjIAAAACD2Nib3KlY2FsZ2ZzaGEyNTZpc2lnbmF0dXJleE1zZWxmI2p1bWJmPS9jMnBhL3VybjpjMnBhOmZkOTU5NjRiLTEzN2MtNDE4YS05MjA1LTQyZGQ0NjIzNzFmYy9jMnBhLnNpZ25hdHVyZWppbnN0YW5jZUlEeCx4bXA6aWlkOjA5NzNmYjJmLTU5MDktNDFiNy1iYWNiLTUyZDA5ZjZjOTJlMHJjcmVhdGVkX2Fzc2VydGlvbnODomN1cmx4LXNlbGYjanVtYmY9YzJwYS5hc3NlcnRpb25zL2MycGEuaW5ncmVkaWVudC52M2RoYXNoWCDqOoFyvaAMzg3O2NtOzgUTpfAmUmY7OFU96aftafI65aJjdXJseCpzZWxmI2p1bWJmPWMycGEuYXNzZXJ0aW9ucy9jMnBhLmFjdGlvbnMudjJkaGFzaFggH8SieHVMdPEA7e2PjeNJGDA7teLrPKAbiSDfVXTPDWyiY3VybHgpc2VsZiNqdW1iZj1jMnBhLmFzc2VydGlvbnMvYzJwYS5oYXNoLmRhdGFkaGFzaFggcAQNVJZYM7bX/J2fax35Pya6869DRvfqMt5lqS14kXB0Y2xhaW1fZ2VuZXJhdG9yX2luZm+jZG5hbWVvQW50aHJvcGljIEZpbGVzZ3ZlcnNpb25lMS4wLjBrc3BlY1ZlcnNpb25lMi40LjAAABA4anVtYgAAAChqdW1kYzJjcwARABCAAACqADibcQNjMnBhLnNpZ25hdHVyZQAAABAIY2JvctKEWQISogEmGCFZAgowggIGMIIBjaADAgECAhRA5aAK7sI50L64g/oGQgU9Z1UTADAKBggqhkjOPQQDAzBJMRcwFQYDVQQKEw5BbnRocm9waWMsIFBCQzEuMCwGA1UEAxMlQW50aHJvcGljIENvbnRlbnQgQ3JlZGVudGlhbHMgUm9vdCBDQTAeFw0yNjA4MDcxODQzNTZaFw0yODA4MDYxOTQzNTZaMEQxFzAVBgNVBAoTDkFudGhyb3BpYywgUEJDMSkwJwYDVQQDEyBBbnRocm9waWMgQ2xhdWRlIENvbnRlbnQgU2lnbmluZzBZMBMGByqGSM49AgEGCCqGSM49AwEHA0IABJh6CmvLUBgFFNU0vUKlOVtE6djd17L5SuwX0LemFisBM3dkd/3cyjxFA3Qo5S46fX0/ihY0VZ7mfb9KF703t5OjWDBWMA4GA1UdDwEB/wQEAwIHgDAVBgNVHSUEDjAMBgorBgEEAYPoXgIBMAwGA1UdEwEB/wQCMAAwHwYDVR0jBBgwFoAUzlHiBIFOZFsj+OPEz5o+nMHXXMIwCgYIKoZIzj0EAwMDZwAwZAIwMXMdFJ4BetLLVY7ORuE9noqbbAZOZn/aArXyTwFAZfKrPzxF2vPoJNf1+UCdg1XGAjBwX1zd9WGqYkqmL5SFqw1QySjr1zJfpJM9+1rdDwSPLMOPOjKuiXjoU/pUUeG9RwmhY3BhZFkNngAAAAAAAAAAAAAAAAAAAAAAAAAAAAAAAAAAAAAAAAAAAAAAAAAAAAAAAAAAAAAAAAAAAAAAAAAAAAAAAAAAAAAAAAAAAAAAAAAAAAAAAAAAAAAAAAAAAAAAAAAAAAAAAAAAAAAAAAAAAAAAAAAAAAAAAAAAAAAAAAAAAAAAAAAAAAAAAAAAAAAAAAAAAAAAAAAAAAAAAAAAAAAAAAAAAAAAAAAAAAAAAAAAAAAAAAAAAAAAAAAAAAAAAAAAAAAAAAAAAAAAAAAAAAAAAAAAAAAAAAAAAAAAAAAAAAAAAAAAAAAAAAAAAAAAAAAAAAAAAAAAAAAAAAAAAAAAAAAAAAAAAAAAAAAAAAAAAAAAAAAAAAAAAAAAAAAAAAAAAAAAAAAAAAAAAAAAAAAAAAAAAAAAAAAAAAAAAAAAAAAAAAAAAAAAAAAAAAAAAAAAAAAAAAAAAAAAAAAAAAAAAAAAAAAAAAAAAAAAAAAAAAAAAAAAAAAAAAAAAAAAAAAAAAAAAAAAAAAAAAAAAAAAAAAAAAAAAAAAAAAAAAAAAAAAAAAAAAAAAAAAAAAAAAAAAAAAAAAAAAAAAAAAAAAAAAAAAAAAAAAAAAAAAAAAAAAAAAAAAAAAAAAAAAAAAAAAAAAAAAAAAAAAAAAAAAAAAAAAAAAAAAAAAAAAAAAAAAAAAAAAAAAAAAAAAAAAAAAAAAAAAAAAAAAAAAAAAAAAAAAAAAAAAAAAAAAAAAAAAAAAAAAAAAAAAAAAAAAAAAAAAAAAAAAAAAAAAAAAAAAAAAAAAAAAAAAAAAAAAAAAAAAAAAAAAAAAAAAAAAAAAAAAAAAAAAAAAAAAAAAAAAAAAAAAAAAAAAAAAAAAAAAAAAAAAAAAAAAAAAAAAAAAAAAAAAAAAAAAAAAAAAAAAAAAAAAAAAAAAAAAAAAAAAAAAAAAAAAAAAAAAAAAAAAAAAAAAAAAAAAAAAAAAAAAAAAAAAAAAAAAAAAAAAAAAAAAAAAAAAAAAAAAAAAAAAAAAAAAAAAAAAAAAAAAAAAAAAAAAAAAAAAAAAAAAAAAAAAAAAAAAAAAAAAAAAAAAAAAAAAAAAAAAAAAAAAAAAAAAAAAAAAAAAAAAAAAAAAAAAAAAAAAAAAAAAAAAAAAAAAAAAAAAAAAAAAAAAAAAAAAAAAAAAAAAAAAAAAAAAAAAAAAAAAAAAAAAAAAAAAAAAAAAAAAAAAAAAAAAAAAAAAAAAAAAAAAAAAAAAAAAAAAAAAAAAAAAAAAAAAAAAAAAAAAAAAAAAAAAAAAAAAAAAAAAAAAAAAAAAAAAAAAAAAAAAAAAAAAAAAAAAAAAAAAAAAAAAAAAAAAAAAAAAAAAAAAAAAAAAAAAAAAAAAAAAAAAAAAAAAAAAAAAAAAAAAAAAAAAAAAAAAAAAAAAAAAAAAAAAAAAAAAAAAAAAAAAAAAAAAAAAAAAAAAAAAAAAAAAAAAAAAAAAAAAAAAAAAAAAAAAAAAAAAAAAAAAAAAAAAAAAAAAAAAAAAAAAAAAAAAAAAAAAAAAAAAAAAAAAAAAAAAAAAAAAAAAAAAAAAAAAAAAAAAAAAAAAAAAAAAAAAAAAAAAAAAAAAAAAAAAAAAAAAAAAAAAAAAAAAAAAAAAAAAAAAAAAAAAAAAAAAAAAAAAAAAAAAAAAAAAAAAAAAAAAAAAAAAAAAAAAAAAAAAAAAAAAAAAAAAAAAAAAAAAAAAAAAAAAAAAAAAAAAAAAAAAAAAAAAAAAAAAAAAAAAAAAAAAAAAAAAAAAAAAAAAAAAAAAAAAAAAAAAAAAAAAAAAAAAAAAAAAAAAAAAAAAAAAAAAAAAAAAAAAAAAAAAAAAAAAAAAAAAAAAAAAAAAAAAAAAAAAAAAAAAAAAAAAAAAAAAAAAAAAAAAAAAAAAAAAAAAAAAAAAAAAAAAAAAAAAAAAAAAAAAAAAAAAAAAAAAAAAAAAAAAAAAAAAAAAAAAAAAAAAAAAAAAAAAAAAAAAAAAAAAAAAAAAAAAAAAAAAAAAAAAAAAAAAAAAAAAAAAAAAAAAAAAAAAAAAAAAAAAAAAAAAAAAAAAAAAAAAAAAAAAAAAAAAAAAAAAAAAAAAAAAAAAAAAAAAAAAAAAAAAAAAAAAAAAAAAAAAAAAAAAAAAAAAAAAAAAAAAAAAAAAAAAAAAAAAAAAAAAAAAAAAAAAAAAAAAAAAAAAAAAAAAAAAAAAAAAAAAAAAAAAAAAAAAAAAAAAAAAAAAAAAAAAAAAAAAAAAAAAAAAAAAAAAAAAAAAAAAAAAAAAAAAAAAAAAAAAAAAAAAAAAAAAAAAAAAAAAAAAAAAAAAAAAAAAAAAAAAAAAAAAAAAAAAAAAAAAAAAAAAAAAAAAAAAAAAAAAAAAAAAAAAAAAAAAAAAAAAAAAAAAAAAAAAAAAAAAAAAAAAAAAAAAAAAAAAAAAAAAAAAAAAAAAAAAAAAAAAAAAAAAAAAAAAAAAAAAAAAAAAAAAAAAAAAAAAAAAAAAAAAAAAAAAAAAAAAAAAAAAAAAAAAAAAAAAAAAAAAAAAAAAAAAAAAAAAAAAAAAAAAAAAAAAAAAAAAAAAAAAAAAAAAAAAAAAAAAAAAAAAAAAAAAAAAAAAAAAAAAAAAAAAAAAAAAAAAAAAAAAAAAAAAAAAAAAAAAAAAAAAAAAAAAAAAAAAAAAAAAAAAAAAAAAAAAAAAAAAAAAAAAAAAAAAAAAAAAAAAAAAAAAAAAAAAAAAAAAAAAAAAAAAAAAAAAAAAAAAAAAAAAAAAAAAAAAAAAAAAAAAAAAAAAAAAAAAAAAAAAAAAAAAAAAAAAAAAAAAAAAAAAAAAAAAAAAAAAAAAAAAAAAAAAAAAAAAAAAAAAAAAAAAAAAAAAAAAAAAAAAAAAAAAAAAAAAAAAAAAAAAAAAAAAAAAAAAAAAAAAAAAAAAAAAAAAAAAAAAAAAAAAAAAAAAAAAAAAAAAAAAAAAAAAAAAAAAAAAAAAAAAAAAAAAAAAAAAAAAAAAAAAAAAAAAAAAAAAAAAAAAAAAAAAAAAAAAAAAAAAAAAAAAAAAAAAAAAAAAAAAAAAAAAAAAAAAAAAAAAAAAAAAAAAAAAAAAAAAAAAAAAAAAAAAAAAAAAAAAAAAAAAAAAAAAAAAAAAAAAAAAAAAAAAAAAAAAAAAAAAAAAAAAAAAAAAAAAAAAAAAAAAAAAAAAAAAAAAAAAAAAAAAAAAAAAAAAAAAAAAAAAAAAAAAAAAAAAAAAAAAAAAAAAAAAAAAAAAAAAAAAAAAAAAAAAAAAAAAAAAAAAAAAAAAAAAAAAAAAAAAAAAAAAAAAAAAAAAAAAAAAAAAAAAAAAAAAAAAAAAAAAAAAAAAAAAAAAAAAAAAAAAAAAAAAAAAAAAAAAAAAAAAAAAAAAAAAAAAAAAAAAAAAAAAAAAAAAAAAAAAAAAAAAAAAAAAAAAAAAAAAAAAAAAAAAAAAAAAAAAAAAAAAAAAAAAAAAAAAAAAAAAAAAAAAAAAAAAAAAAAAAAAAAAAAAAAAAAAAAAAAAAAAAAAAAAAAAAAAAAAAAAAAAAAAAAAAAAAAAAAAAAAAAAAAAAAAAAAAAAAAAAAAAAAAAAAAAAAAAAAAAAAAAAAAAAAAAAAAAAAAAAAAAAAAAAAAAAAAAAAAAAAAAAAAAAAAAAAAAAAAAAAAAAAAAAAAAAAAAAAAAAAAAAAAAAAAAAAAAAAAAAAAAAAAAAAAAAAAAAAAAAAAAAAAAAAAAAAAAAAAAAAAAAAAAAAAAAAAAAAAAAAAAAAAAAAAAAAAAAAAAAAAAAAAAAAAAAAAAAAAAAAAAAAAAAAAAAAAAAAAAAAAAAAAAAAAAAAAAAAAAAAAAAAAAAAAAAAAAAAAAAAAAAAAAAAAAAAAAAAAAAAAAAAAAAAAAAAAAAAAAAAAAAAAAAAAAAAAAAAAAAAAAAAAAAAAAAAAAAAAAAAAAAAAAAAAAAAAAAAAAAAAAAAAAAAAAAAAAAAAAAAAAAAAAAAAAAAAAAAAAAAAAAAAAAAAAAAAAAAAAAAAAAAAAAAAAAAAAAAAAAAAAAAAAAAAAAAAAAAAAAAAAAAAAAAAAAAAAAAAAAAAAAAAAAAAAAAAAAAAAAAAAAAAAAAAAAAAAAAAAAAAAAAAAAAAAAAAAAAAAAAAAAAAAAAAAAAAAAAAAAAAAAAAAAAAAAAAAAAAAAAAAAAAAAAAAAAAAAAAAAAAAAAAAAAAAAAAAAAAAAAAAAAAAAAAAAAAAAAAAAAAAAAAAAAAAAAAAAAAAAAAAAAAAAAAAAAAAAAAAAAAAAAAAAAAAAAAAAAAAAAAAAAAAAAAAAAAAAAAAAAAAAAAAAAAAAAAAAAAAAAAAAAAAAAAAAAAAAAAAAAAAAAAAAAAAAAAAAAAAAAAAAAAAAAAAAAAAAAAAAAAAAAAAAAAAAAAAAAAAAAAAAAAAAAAAAAAAAAAAAAAAAAAAAAAAAAAAAAAAAAAAAAAAAAAAAAAAAAAAAAAAAAAAAAAAAAAAAAAAAAAAAAAAAAAAAAAAAAAAAAAAAAAAAAAAAAAAAAAAAAAAAAAAAAAAAAAAAAAAAAAAAAAAAAAAAAAAAAAAAAAAAAAAAAAAAAAAAAAAAAAAAAAAAAAAAAAAAAAAAAAAAAAAAAAAAAAAAAAAAAAAAAAAAAAAAPZYQH9vxTqRRjDKNaxkuL98vbDmFsQBRjs3fN21b6ng4StdNH9c5GCUnW4EMnqDAw6soTXlhWh4L4p8EPjpCdSndic=</c2pa:manifest></metadata><defs><linearGradient id="g" x1="0" y1="0" x2="1" y2="1"><stop offset="0" stop-color="#00468B"/><stop offset="1" stop-color="#06203A"/></linearGradient></defs><rect width="900" height="680" fill="url(#g)"/><path d="M0,109.7 Q0.0,109.7 20.0,110.9 Q40.0,112.1 60.0,113.8 Q80.0,115.5 100.0,117.5 Q120.0,119.5 140.0,121.6 Q160.0,123.7 180.0,125.8 Q200.0,127.9 220.0,129.7 Q240.0,131.5 260.0,132.9 Q280.0,134.3 300.0,135.1 Q320.0,136.0 340.0,136.2 Q360.0,136.4 380.0,135.9 Q400.0,135.5 420.0,134.4 Q440.0,133.3 460.0,131.7 Q480.0,130.2 500.0,128.2 Q520.0,126.3 540.0,124.2 Q560.0,122.0 580.0,119.9 Q600.0,117.8 620.0,115.9 Q640.0,114.0 660.0,112.5 Q680.0,111.0 700.0,110.1 Q720.0,109.1 740.0,108.7 Q760.0,108.4 780.0,108.7 Q800.0,109.0 820.0,110.0 Q840.0,110.9 860.0,112.4 Q880.0,113.8 900.0,115.7" fill="none" stroke="#ffffff" stroke-opacity=".22" stroke-width="1.2"/><path d="M0,176.7 Q0.0,176.7 20.0,179.0 Q40.0,181.3 60.0,183.6 Q80.0,185.8 100.0,187.8 Q120.0,189.7 140.0,191.3 Q160.0,192.8 180.0,193.7 Q200.0,194.7 220.0,194.9 Q240.0,195.2 260.0,194.7 Q280.0,194.3 300.0,193.2 Q320.0,192.1 340.0,190.4 Q360.0,188.8 380.0,186.7 Q400.0,184.7 420.0,182.4 Q440.0,180.1 460.0,177.9 Q480.0,175.6 500.0,173.5 Q520.0,171.5 540.0,169.9 Q560.0,168.2 580.0,167.1 Q600.0,166.0 620.0,165.6 Q640.0,165.2 660.0,165.5 Q680.0,165.8 700.0,166.7 Q720.0,167.7 740.0,169.2 Q760.0,170.8 780.0,172.8 Q800.0,174.7 820.0,177.0 Q840.0,179.2 860.0,181.5 Q880.0,183.8 900.0,185.9" fill="none" stroke="#ffffff" stroke-opacity=".22" stroke-width="1.2"/><path d="M0,247.9 Q0.0,247.9 20.0,249.6 Q40.0,251.2 60.0,252.3 Q80.0,253.3 100.0,253.7 Q120.0,254.0 140.0,253.6 Q160.0,253.2 180.0,252.0 Q200.0,250.9 220.0,249.2 Q240.0,247.4 260.0,245.3 Q280.0,243.1 300.0,240.7 Q320.0,238.3 340.0,235.8 Q360.0,233.4 380.0,231.2 Q400.0,229.0 420.0,227.2 Q440.0,225.4 460.0,224.2 Q480.0,223.0 500.0,222.5 Q520.0,222.0 540.0,222.3 Q560.0,222.5 580.0,223.5 Q600.0,224.5 620.0,226.1 Q640.0,227.7 660.0,229.8 Q680.0,231.9 700.0,234.2 Q720.0,236.6 740.0,239.1 Q760.0,241.5 780.0,243.8 Q800.0,246.1 820.0,248.0 Q840.0,249.9 860.0,251.2 Q880.0,252.6 900.0,253.2" fill="none" stroke="#ffffff" stroke-opacity=".22" stroke-width="1.2"/><path d="M0,312.8 Q0.0,312.8 20.0,312.4 Q40.0,312.0 60.0,310.9 Q80.0,309.7 100.0,307.9 Q120.0,306.1 140.0,303.8 Q160.0,301.6 180.0,299.0 Q200.0,296.5 220.0,293.9 Q240.0,291.3 260.0,288.9 Q280.0,286.5 300.0,284.6 Q320.0,282.7 340.0,281.3 Q360.0,280.0 380.0,279.4 Q400.0,278.8 420.0,279.1 Q440.0,279.3 460.0,280.2 Q480.0,281.2 500.0,282.9 Q520.0,284.6 540.0,286.7 Q560.0,288.9 580.0,291.5 Q600.0,294.0 620.0,296.6 Q640.0,299.2 660.0,301.6 Q680.0,304.0 700.0,306.1 Q720.0,308.2 740.0,309.6 Q760.0,311.1 780.0,311.9 Q800.0,312.6 820.0,312.6 Q840.0,312.6 860.0,311.8 Q880.0,310.9 900.0,309.4" fill="none" stroke="#ffffff" stroke-opacity=".22" stroke-width="1.2"/><path d="M0,364.8 Q0.0,364.8 20.0,362.5 Q40.0,360.1 60.0,357.4 Q80.0,354.7 100.0,351.9 Q120.0,349.2 140.0,346.7 Q160.0,344.1 180.0,342.0 Q200.0,339.9 220.0,338.5 Q240.0,337.0 260.0,336.4 Q280.0,335.7 300.0,335.8 Q320.0,336.0 340.0,337.0 Q360.0,338.0 380.0,339.7 Q400.0,341.4 420.0,343.7 Q440.0,346.0 460.0,348.6 Q480.0,351.3 500.0,354.0 Q520.0,356.8 540.0,359.4 Q560.0,362.0 580.0,364.2 Q600.0,366.4 620.0,368.0 Q640.0,369.6 660.0,370.5 Q680.0,371.4 700.0,371.4 Q720.0,371.4 740.0,370.6 Q760.0,369.8 780.0,368.2 Q800.0,366.7 820.0,364.5 Q840.0,362.3 860.0,359.8 Q880.0,357.2 900.0,354.4" fill="none" stroke="#ffffff" stroke-opacity=".22" stroke-width="1.2"/><path d="M0,407.1 Q0.0,407.1 20.0,404.4 Q40.0,401.7 60.0,399.5 Q80.0,397.3 100.0,395.7 Q120.0,394.1 140.0,393.3 Q160.0,392.5 180.0,392.6 Q200.0,392.7 220.0,393.7 Q240.0,394.7 260.0,396.5 Q280.0,398.2 300.0,400.6 Q320.0,403.0 340.0,405.8 Q360.0,408.5 380.0,411.4 Q400.0,414.3 420.0,417.1 Q440.0,419.9 460.0,422.3 Q480.0,424.6 500.0,426.4 Q520.0,428.1 540.0,429.1 Q560.0,430.1 580.0,430.2 Q600.0,430.3 620.0,429.5 Q640.0,428.7 660.0,427.1 Q680.0,425.5 700.0,423.2 Q720.0,421.0 740.0,418.3 Q760.0,415.6 780.0,412.7 Q800.0,409.8 820.0,406.9 Q840.0,404.1 860.0,401.6 Q880.0,399.2 900.0,397.2" fill="none" stroke="#ffffff" stroke-opacity=".22" stroke-width="1.2"/><path d="M0,451.1 Q0.0,451.1 20.0,450.3 Q40.0,449.4 60.0,449.4 Q80.0,449.5 100.0,450.5 Q120.0,451.4 140.0,453.2 Q160.0,455.0 180.0,457.5 Q200.0,460.0 220.0,462.9 Q240.0,465.8 260.0,468.8 Q280.0,471.9 300.0,474.8 Q320.0,477.7 340.0,480.3 Q360.0,482.8 380.0,484.7 Q400.0,486.6 420.0,487.7 Q440.0,488.8 460.0,488.9 Q480.0,489.1 500.0,488.3 Q520.0,487.6 540.0,485.9 Q560.0,484.3 580.0,482.0 Q600.0,479.7 620.0,476.8 Q640.0,474.0 660.0,471.0 Q680.0,467.9 700.0,464.9 Q720.0,461.9 740.0,459.3 Q760.0,456.6 780.0,454.6 Q800.0,452.5 820.0,451.2 Q840.0,450.0 860.0,449.6 Q880.0,449.2 900.0,449.8" fill="none" stroke="#ffffff" stroke-opacity=".22" stroke-width="1.2"/><path d="M0,508.1 Q0.0,508.1 20.0,510.0 Q40.0,511.8 60.0,514.4 Q80.0,516.9 100.0,519.9 Q120.0,522.9 140.0,526.2 Q160.0,529.4 180.0,532.5 Q200.0,535.6 220.0,538.3 Q240.0,541.0 260.0,543.0 Q280.0,545.0 300.0,546.3 Q320.0,547.5 340.0,547.7 Q360.0,547.9 380.0,547.2 Q400.0,546.5 420.0,544.8 Q440.0,543.2 460.0,540.8 Q480.0,538.4 500.0,535.4 Q520.0,532.5 540.0,529.3 Q560.0,526.1 580.0,522.9 Q600.0,519.8 620.0,517.0 Q640.0,514.2 660.0,512.0 Q680.0,509.7 700.0,508.3 Q720.0,506.9 740.0,506.5 Q760.0,506.0 780.0,506.5 Q800.0,507.0 820.0,508.5 Q840.0,509.9 860.0,512.2 Q880.0,514.4 900.0,517.3" fill="none" stroke="#ffffff" stroke-opacity=".22" stroke-width="1.2"/><path d="M0,580.1 Q0.0,580.1 20.0,583.4 Q40.0,586.8 60.0,590.1 Q80.0,593.3 100.0,596.2 Q120.0,599.1 140.0,601.3 Q160.0,603.5 180.0,604.8 Q200.0,606.1 220.0,606.4 Q240.0,606.8 260.0,606.1 Q280.0,605.4 300.0,603.7 Q320.0,602.0 340.0,599.6 Q360.0,597.1 380.0,594.0 Q400.0,591.0 420.0,587.7 Q440.0,584.3 460.0,581.0 Q480.0,577.7 500.0,574.7 Q520.0,571.7 540.0,569.4 Q560.0,567.0 580.0,565.5 Q600.0,563.9 620.0,563.4 Q640.0,562.8 660.0,563.3 Q680.0,563.7 700.0,565.2 Q720.0,566.7 740.0,569.0 Q760.0,571.3 780.0,574.2 Q800.0,577.1 820.0,580.4 Q840.0,583.7 860.0,587.1 Q880.0,590.4 900.0,593.5" fill="none" stroke="#ffffff" stroke-opacity=".22" stroke-width="1.2"/><text x="450" y="331" text-anchor="middle" font-family="Jost, Futura, Avenir, Helvetica, Arial, sans-serif" font-size="26" font-weight="500" letter-spacing="1.6" fill="#ffffff" fill-opacity=".92">[Project Image 04]</text><text x="450" y="370" text-anchor="middle" font-family="Jost, Futura, Avenir, Helvetica, Arial, sans-serif" font-size="16" font-weight="400" letter-spacing="1.9" fill="#ffffff" fill-opacity=".62">900 x 680</text></svg>